<svg width="289" height="110" xmlns="http://www.w3.org/2000/svg" xmlns:xlink="http://www.w3.org/1999/xlink" xml:space="preserve" overflow="hidden"><defs><clipPath id="clip0"><rect x="320" y="2016" width="289" height="110"/></clipPath></defs><g clip-path="url(#clip0)" transform="translate(-320 -2016)"><path d="M324 2057.85C324 2045.78 333.783 2036 345.85 2036L384.15 2036C396.217 2036 406 2045.78 406 2057.85L406 2083.15C406 2095.22 396.217 2105 384.15 2105L345.85 2105C333.783 2105 324 2095.22 324 2083.15Z" fill="#5D5D5D" fill-rule="evenodd" fill-opacity="1"/><path d="M366 2056.7C366 2045.27 375.268 2036 386.7 2036L573.3 2036C584.732 2036 594 2045.27 594 2056.7L594 2084.3C594 2095.73 584.732 2105 573.3 2105L386.7 2105C375.268 2105 366 2095.73 366 2084.3Z" fill="#0B7DBE" fill-rule="evenodd" fill-opacity="1"/><text fill="#FFFFFF" fill-opacity="1" font-family="Calibri Light,Calibri Light_MSFontService,sans-serif" font-style="normal" font-variant="normal" font-weight="300" font-stretch="normal" font-size="50" text-anchor="start" direction="ltr" writing-mode="lr-tb" unicode-bidi="normal" text-decoration="none" transform="matrix(1 0 0 1 420.883 2082)">arcfac</text><text fill="#FFFFFF" fill-opacity="1" font-family="Calibri Light,Calibri Light_MSFontService,sans-serif" font-style="normal" font-variant="normal" font-weight="300" font-stretch="normal" font-size="50" text-anchor="start" direction="ltr" writing-mode="lr-tb" unicode-bidi="normal" text-decoration="none" transform="matrix(1 0 0 1 542.341 2082)">e</text><rect x="353" y="2036" width="49.9998" height="69" fill="#5D5D5D" fill-opacity="1"/><path d="M374.927 2094C373.707 2094 373.707 2094 373.707 2092.78 373.707 2091.55 373.707 2089.1 373.707 2085.43 373.707 2082.98 372.488 2081.75 372.488 2081.75 377.366 2080.53 383.463 2078.08 383.463 2068.28 383.463 2065.82 382.244 2063.38 381.024 2062.15 381.024 2060.93 382.244 2058.48 381.024 2054.8 378.585 2054.8 373.707 2058.48 373.707 2058.48 371.268 2057.25 370.049 2057.25 367.61 2057.25 365.171 2057.25 362.732 2057.25 361.512 2058.48 361.512 2058.48 356.634 2054.8 354.195 2054.8 352.976 2058.48 354.195 2060.93 354.195 2062.15 352.976 2063.38 351.756 2065.82 351.756 2068.28 351.756 2078.08 356.634 2080.53 362.732 2081.75 361.512 2081.75 361.512 2082.98 361.512 2084.2 360.293 2085.43 356.634 2086.65 354.195 2082.98 352.976 2080.53 350.537 2079.3 350.537 2079.3 348.098 2079.3 349.317 2081.75 349.317 2081.75 351.756 2081.75 352.976 2085.43 352.976 2085.43 354.195 2089.1 361.512 2087.88 361.512 2087.88 361.512 2090.33 361.512 2092.78 361.512 2092.78 361.512 2094 360.293 2094 359.073 2094 349.317 2090.33 342 2081.75 342 2069.5 342 2056.03 352.976 2045 367.61 2045 381.024 2045 392 2056.03 392 2069.5 392 2081.75 385.902 2090.33 374.927 2094Z" fill="#FFFFFF" fill-rule="evenodd" fill-opacity="1"/></g></svg>